<svg width="185" height="40" viewBox="0 0 185 40" fill="none" xmlns="http://www.w3.org/2000/svg">
<path d="M176.892 28.0588C175.768 28.0588 174.716 27.8427 173.735 27.4105C172.754 26.9782 171.893 26.379 171.152 25.6127C170.411 24.8399 169.83 23.946 169.407 22.9309C168.992 21.9092 168.784 20.8155 168.784 19.6497C168.784 18.484 168.992 17.3936 169.407 16.3785C169.83 15.3568 170.411 14.4628 171.152 13.6966C171.893 12.9238 172.754 12.3213 173.735 11.889C174.716 11.4568 175.768 11.2407 176.892 11.2407C178.016 11.2407 179.069 11.4568 180.05 11.889C181.031 12.3213 181.892 12.9238 182.633 13.6966C183.374 14.4628 183.952 15.3568 184.368 16.3785C184.79 17.3936 185.001 18.484 185.001 19.6497C185.001 20.8155 184.79 21.9092 184.368 22.9309C183.952 23.946 183.374 24.8399 182.633 25.6127C181.892 26.379 181.031 26.9782 180.05 27.4105C179.069 27.8427 178.016 28.0588 176.892 28.0588ZM176.883 24.9938C177.571 24.9938 178.202 24.8629 178.773 24.6009C179.345 24.3389 179.842 23.9689 180.265 23.4908C180.687 23.0127 181.015 22.4495 181.249 21.8011C181.483 21.1462 181.6 20.4291 181.6 19.6497C181.6 18.8704 181.483 18.1565 181.249 17.5082C181.015 16.8533 180.687 16.2868 180.265 15.8087C179.842 15.3306 179.345 14.9606 178.773 14.6986C178.202 14.4366 177.571 14.3057 176.883 14.3057C176.207 14.3057 175.58 14.4366 175.002 14.6986C174.43 14.9606 173.933 15.3306 173.511 15.8087C173.088 16.2868 172.76 16.8533 172.526 17.5082C172.299 18.1565 172.185 18.8704 172.185 19.6497C172.185 20.4291 172.299 21.1462 172.526 21.8011C172.76 22.4495 173.088 23.0127 173.511 23.4908C173.933 23.9689 174.43 24.3389 175.002 24.6009C175.58 24.8629 176.207 24.9938 176.883 24.9938Z" fill="#272A33"/>
<path d="M157.479 27.7779V11.5604H163.382C164.237 11.5604 164.981 11.738 165.615 12.0932C166.249 12.4485 166.741 12.9504 167.091 13.5991C167.44 14.2478 167.615 15.0124 167.615 15.8928V16.1708C167.615 17.1438 167.421 17.9315 167.033 18.5339C166.644 19.1363 166.165 19.5765 165.596 19.8545V20.2715C166.114 20.3024 166.515 20.5186 166.8 20.9202C167.084 21.3063 167.227 21.8237 167.227 22.4724V27.7779H164.664V22.9126C164.664 22.5419 164.58 22.2408 164.411 22.0091C164.256 21.7774 163.991 21.6616 163.615 21.6616H160.043V27.7779H157.479ZM160.043 18.8814H163.11C163.719 18.8814 164.191 18.6884 164.528 18.3022C164.877 17.9006 165.052 17.3755 165.052 16.7268V16.4951C165.052 15.8464 164.884 15.329 164.547 14.9429C164.211 14.5413 163.732 14.3405 163.11 14.3405H160.043V18.8814Z" fill="#272A33"/>
<path d="M145.091 27.7779V11.5604H150.792C151.663 11.5604 152.429 11.7689 153.088 12.1859C153.762 12.5875 154.283 13.1589 154.652 13.9003C155.035 14.6417 155.226 15.5221 155.226 16.5415V16.8658C155.226 17.8698 155.028 18.7501 154.633 19.507C154.25 20.2483 153.722 20.8275 153.049 21.2445C152.389 21.6461 151.637 21.8469 150.792 21.8469H147.704V27.7779H145.091ZM147.704 19.0668H150.535C151.155 19.0668 151.657 18.866 152.039 18.4644C152.422 18.0628 152.613 17.5145 152.613 16.8195V16.5878C152.613 15.8928 152.422 15.3445 152.039 14.9429C151.657 14.5413 151.155 14.3405 150.535 14.3405H147.704V19.0668Z" fill="#272A33"/>
<path d="M137.96 27.8625C136.888 27.8625 135.941 27.6418 135.121 27.2004C134.3 26.7589 133.658 26.1272 133.195 25.3053C132.731 24.4833 132.5 23.4939 132.5 22.3371V21.6978H135.081V22.3371C135.081 23.2961 135.339 24.0191 135.855 24.5062C136.372 24.978 137.073 25.214 137.96 25.214C138.861 25.214 139.529 25.0085 139.966 24.5975C140.416 24.1865 140.641 23.6614 140.641 23.0221C140.641 22.5806 140.529 22.2229 140.303 21.949C140.092 21.675 139.774 21.4543 139.35 21.2868C138.94 21.1042 138.437 20.9367 137.841 20.7845L137.384 20.6704C136.431 20.4268 135.611 20.1224 134.922 19.7571C134.247 19.3765 133.724 18.8818 133.353 18.273C132.996 17.6641 132.817 16.8726 132.817 15.8984C132.817 14.9243 133.016 14.0947 133.413 13.4097C133.823 12.7095 134.393 12.1768 135.121 11.8115C135.862 11.4309 136.729 11.2407 137.722 11.2407C138.715 11.2407 139.595 11.4385 140.363 11.8343C141.144 12.2148 141.753 12.7932 142.19 13.5695C142.64 14.3306 142.865 15.2896 142.865 16.4464V17.1314H140.284V16.4464C140.284 15.8375 140.178 15.3505 139.966 14.9851C139.767 14.6046 139.476 14.3306 139.092 14.1632C138.708 13.9805 138.252 13.8892 137.722 13.8892C136.928 13.8892 136.339 14.0642 135.955 14.4143C135.584 14.7492 135.399 15.2135 135.399 15.8071C135.399 16.2029 135.485 16.5377 135.657 16.8117C135.842 17.0857 136.114 17.314 136.471 17.4967C136.828 17.6793 137.285 17.8392 137.841 17.9762L138.298 18.0903C139.291 18.3339 140.151 18.6459 140.879 19.0264C141.621 19.407 142.197 19.9093 142.607 20.5334C143.017 21.1574 143.223 21.9566 143.223 22.9307C143.223 23.9049 143.004 24.7649 142.567 25.5108C142.144 26.2414 141.535 26.8198 140.74 27.246C139.959 27.657 139.033 27.8625 137.96 27.8625Z" fill="#272A33"/>
<path d="M124.297 27.7779V14.3405H120.255V11.5604H130.954V14.3405H126.912V27.7779H124.297Z" fill="#272A33"/>
<path d="M108.994 27.7779V11.5604H114.897C115.751 11.5604 116.496 11.738 117.13 12.0932C117.764 12.4485 118.256 12.9504 118.605 13.5991C118.955 14.2478 119.13 15.0124 119.13 15.8928V16.1708C119.13 17.1438 118.936 17.9315 118.547 18.5339C118.159 19.1363 117.68 19.5765 117.11 19.8545V20.2715C117.628 20.3024 118.029 20.5186 118.314 20.9202C118.599 21.3063 118.741 21.8237 118.741 22.4724V27.7779H116.178V22.9126C116.178 22.5419 116.094 22.2408 115.926 22.0091C115.771 21.7774 115.505 21.6616 115.13 21.6616H111.557V27.7779H108.994ZM111.557 18.8814H114.625C115.233 18.8814 115.706 18.6884 116.042 18.3022C116.392 17.9006 116.567 17.3755 116.567 16.7268V16.4951C116.567 15.8464 116.398 15.329 116.062 14.9429C115.725 14.5413 115.246 14.3405 114.625 14.3405H111.557V18.8814Z" fill="#272A33"/>
<path d="M94.2788 27.7779L97.9172 11.5604H102.465L106.104 27.7779H103.414L102.663 24.21H97.7195L96.9681 27.7779H94.2788ZM98.3325 21.3836H102.05L100.369 13.4833H100.013L98.3325 21.3836Z" fill="#272A33"/>
<path d="M84.7437 27.7779V11.5604H90.4449C91.316 11.5604 92.0814 11.7689 92.7413 12.1859C93.4143 12.5875 93.9356 13.1589 94.3052 13.9003C94.6879 14.6417 94.8792 15.5221 94.8792 16.5415V16.8658C94.8792 17.8698 94.6813 18.7501 94.2854 19.507C93.9026 20.2483 93.3747 20.8275 92.7017 21.2445C92.0418 21.6461 91.2896 21.8469 90.4449 21.8469H87.3567V27.7779H84.7437ZM87.3567 19.0668H90.1876C90.8079 19.0668 91.3094 18.866 91.6921 18.4644C92.0748 18.0628 92.2662 17.5145 92.2662 16.8195V16.5878C92.2662 15.8928 92.0748 15.3445 91.6921 14.9429C91.3094 14.5413 90.8079 14.3405 90.1876 14.3405H87.3567V19.0668Z" fill="#272A33"/>
<path d="M40.5879 5.66309H5.66309V22.6533H40.5879V28.3164H0V0H40.5879V5.66309Z" fill="#222222"/>
<path d="M50.9692 39.6428H11.3267V33.9797H45.3062V16.9895H11.3267V11.3264H50.9692V39.6428Z" fill="#EE753E"/>
<path d="M81.6875 14.8441H64.8691V17.848H81.6885V28.0589H61.2656V24.4554H78.084V21.4515H61.2656V11.2405H81.6875V14.8441Z" fill="#272A33"/>
</svg>
